<?xml version="1.0" encoding="utf-8"?>
<!-- Generator: Adobe Illustrator 22.1.0, SVG Export Plug-In . SVG Version: 6.00 Build 0)  -->
<svg version="1.1" id="Layer_1" xmlns="http://www.w3.org/2000/svg" xmlns:xlink="http://www.w3.org/1999/xlink" x="0px" y="0px"
	 viewBox="0 0 164 10" style="enable-background:new 0 0 164 10;" xml:space="preserve">
<style type="text/css">
	.st0{fill:url(#SVGID_1_);}
</style>
<linearGradient id="SVGID_1_" gradientUnits="userSpaceOnUse" x1="-335.9364" y1="273.5756" x2="-334.9265" y2="273.5756" gradientTransform="matrix(164 0 0 -10 55093.9883 2740.7561)">
	<stop  offset="0" style="stop-color:#FCBAD3"/>
	<stop  offset="0.4753" style="stop-color:#AA96DA"/>
	<stop  offset="1" style="stop-color:#FCBAD3"/>
</linearGradient>
<path class="st0" d="M82,0L82,0c3.5,0.2,5.4,2.4,7.1,4.3c1.7,2,3.2,3.7,6.2,3.7s4.5-1.7,6.2-3.7c1.8-2,3.8-4.3,7.7-4.3
	c3.9,0,5.9,2.3,7.7,4.3c1.7,2,3.2,3.7,6.2,3.7s4.5-1.7,6.2-3.7c1.8-2,3.8-4.3,7.7-4.3c4,0,6,2.3,7.7,4.3s3.2,3.7,6.2,3.7
	s4.5-1.7,6.2-3.7c1.7-1.9,3.5-4,6.9-4.3v2c-2.5,0.3-3.9,1.8-5.4,3.7c-1.8,2-3.8,4.3-7.7,4.3s-5.9-2.3-7.7-4.3C141.5,3.7,140,2,137,2
	s-4.5,1.7-6.2,3.7c-1.8,2-3.8,4.3-7.7,4.3c-3.9,0-5.9-2.3-7.7-4.3c-1.7-2-3.2-3.7-6.2-3.7s-4.5,1.7-6.2,3.7c-1.8,2-3.8,4.3-7.7,4.3
	c-3.9,0-5.9-2.3-7.7-4.3C86,3.8,84.6,2.2,82,2v0c-2.5,0.3-3.9,1.8-5.4,3.7c-1.8,2-3.8,4.3-7.7,4.3C65,10,63,7.7,61.2,5.7
	C59.5,3.7,58,2,55,2s-4.5,1.7-6.2,3.7C47,7.7,45,10,41.1,10s-5.9-2.3-7.7-4.3c-1.7-2-3.2-3.7-6.2-3.7S22.7,3.7,21,5.7
	c-1.8,2-3.8,4.3-7.7,4.3S7.4,7.7,5.6,5.7C4,3.8,2.6,2.2,0,2V0c3.5,0.2,5.4,2.4,7.1,4.3c1.7,2,3.2,3.7,6.2,3.7s4.5-1.7,6.2-3.7
	c1.8-2,3.8-4.3,7.7-4.3s5.9,2.3,7.7,4.3c1.7,2,3.2,3.7,6.2,3.7s4.5-1.7,6.2-3.7C49.1,2.3,51.1,0,55,0c4,0,6,2.3,7.7,4.3
	S65.9,8,68.9,8s4.5-1.7,6.2-3.7C76.8,2.4,78.6,0.3,82,0z"/>
</svg>
