<?xml version="1.0" encoding="utf-8"?>
<!-- Generator: Adobe Illustrator 22.1.0, SVG Export Plug-In . SVG Version: 6.00 Build 0)  -->
<svg version="1.1" id="Layer_1" xmlns="http://www.w3.org/2000/svg" xmlns:xlink="http://www.w3.org/1999/xlink" x="0px" y="0px"
	 viewBox="0 0 164.8 10" enable-background="new 0 0 164.8 10" xml:space="preserve">
<linearGradient id="SVGID_1_" gradientUnits="userSpaceOnUse" x1="-335.095" y1="273.5606" x2="-334.0797" y2="273.5606" gradientTransform="matrix(164 0 0 -10 54955.9883 2740.5913)">
	<stop  offset="0" style="stop-color:#AA96DA"/>
	<stop  offset="0.4753" style="stop-color:#FCBAD3"/>
	<stop  offset="1" style="stop-color:#AA96DA"/>
</linearGradient>
<path fill="url(#SVGID_1_)" d="M82.8,0L82.8,0c3.5,0.2,5.4,2.4,7.1,4.3c1.7,2,3.2,3.7,6.2,3.7s4.5-1.7,6.2-3.7
	c1.8-2,3.8-4.3,7.7-4.3c3.9,0,5.9,2.3,7.7,4.3c1.7,2,3.2,3.7,6.2,3.7s4.5-1.7,6.2-3.7c1.8-2,3.8-4.3,7.7-4.3c4,0,6,2.3,7.7,4.3
	s3.2,3.7,6.2,3.7s4.5-1.7,6.2-3.7c1.7-1.9,3.5-4,6.9-4.3v2c-2.5,0.3-3.9,1.8-5.4,3.7c-1.8,2-3.8,4.3-7.7,4.3s-5.9-2.3-7.7-4.3
	c-1.7-2-3.2-3.7-6.2-3.7s-4.5,1.7-6.2,3.7c-1.8,2-3.8,4.3-7.7,4.3c-3.9,0-5.9-2.3-7.7-4.3C114.5,3.7,113,2,110,2s-4.5,1.7-6.2,3.7
	c-1.8,2-3.8,4.3-7.7,4.3c-3.9,0-5.9-2.3-7.7-4.3c-1.6-1.9-3-3.5-5.6-3.7v0c-2.5,0.3-3.9,1.8-5.4,3.7c-1.8,2-3.8,4.3-7.7,4.3
	c-3.9,0-5.9-2.3-7.7-4.3c-1.7-2-3.2-3.7-6.2-3.7s-4.5,1.7-6.2,3.7c-1.8,2-3.8,4.3-7.7,4.3S36,7.7,34.2,5.7C32.5,3.7,31,2,28,2
	s-4.5,1.7-6.2,3.7C20,7.7,18,10,14.1,10S8.2,7.7,6.4,5.7C4.9,3.8,2.6,2.2,0,2V0c3.5,0.2,6.2,2.4,7.9,4.3c1.7,2,3.2,3.7,6.2,3.7
	s4.5-1.7,6.2-3.7C22.1,2.3,24.1,0,28,0s5.9,2.3,7.7,4.3c1.7,2,3.2,3.7,6.2,3.7s4.5-1.7,6.2-3.7c1.8-2,3.8-4.3,7.7-4.3
	c4,0,6,2.3,7.7,4.3c1.7,2,3.2,3.7,6.2,3.7s4.5-1.7,6.2-3.7C77.6,2.4,79.5,0.3,82.8,0z"/>
</svg>
